  0
SECTION
  2
HEADER
  9
$ACADVER
  1
AC1024
  9
$ACADMAINTVER
 70
6
  9
$DWGCODEPAGE
  3
ANSI_1252
  9
$LASTSAVEDBY
  1
ezdxf
  9
$INSBASE
 10
0.0
 20
0.0
 30
0.0
  9
$EXTMIN
 10
1e+20
 20
1e+20
 30
1e+20
  9
$EXTMAX
 10
-1e+20
 20
-1e+20
 30
-1e+20
  9
$LIMMIN
 10
0.0
 20
0.0
  9
$LIMMAX
 10
420.0
 20
297.0
  9
$ORTHOMODE
 70
0
  9
$REGENMODE
 70
1
  9
$FILLMODE
 70
1
  9
$QTEXTMODE
 70
0
  9
$MIRRTEXT
 70
1
  9
$LTSCALE
 40
1.0
  9
$ATTMODE
 70
1
  9
$TEXTSIZE
 40
2.5
  9
$TRACEWID
 40
1.0
  9
$TEXTSTYLE
  7
Standard
  9
$CLAYER
  8
0
  9
$CELTYPE
  6
ByLayer
  9
$CECOLOR
 62
256
  9
$CELTSCALE
 40
1.0
  9
$DISPSILH
 70
0
  9
$DIMSCALE
 40
1.0
  9
$DIMASZ
 40
2.5
  9
$DIMEXO
 40
0.625
  9
$DIMDLI
 40
3.75
  9
$DIMRND
 40
0.0
  9
$DIMDLE
 40
0.0
  9
$DIMEXE
 40
1.25
  9
$DIMTP
 40
0.0
  9
$DIMTM
 40
0.0
  9
$DIMTXT
 40
2.5
  9
$DIMCEN
 40
2.5
  9
$DIMTSZ
 40
0.0
  9
$DIMTOL
 70
0
  9
$DIMLIM
 70
0
  9
$DIMTIH
 70
0
  9
$DIMTOH
 70
0
  9
$DIMSE1
 70
0
  9
$DIMSE2
 70
0
  9
$DIMTAD
 70
1
  9
$DIMZIN
 70
8
  9
$DIMBLK
  1

  9
$DIMASO
 70
1
  9
$DIMSHO
 70
1
  9
$DIMPOST
  1

  9
$DIMAPOST
  1

  9
$DIMALT
 70
0
  9
$DIMALTD
 70
3
  9
$DIMALTF
 40
0.03937007874
  9
$DIMLFAC
 40
1.0
  9
$DIMTOFL
 70
1
  9
$DIMTVP
 40
0.0
  9
$DIMTIX
 70
0
  9
$DIMSOXD
 70
0
  9
$DIMSAH
 70
0
  9
$DIMBLK1
  1

  9
$DIMBLK2
  1

  9
$DIMSTYLE
  2
ISO-25
  9
$DIMCLRD
 70
0
  9
$DIMCLRE
 70
0
  9
$DIMCLRT
 70
0
  9
$DIMTFAC
 40
1.0
  9
$DIMGAP
 40
0.625
  9
$DIMJUST
 70
0
  9
$DIMSD1
 70
0
  9
$DIMSD2
 70
0
  9
$DIMTOLJ
 70
0
  9
$DIMTZIN
 70
8
  9
$DIMALTZ
 70
0
  9
$DIMALTTZ
 70
0
  9
$DIMUPT
 70
0
  9
$DIMDEC
 70
2
  9
$DIMTDEC
 70
2
  9
$DIMALTU
 70
2
  9
$DIMALTTD
 70
3
  9
$DIMTXSTY
  7
Standard
  9
$DIMAUNIT
 70
0
  9
$DIMADEC
 70
0
  9
$DIMALTRND
 40
0.0
  9
$DIMAZIN
 70
0
  9
$DIMDSEP
 70
44
  9
$DIMATFIT
 70
3
  9
$DIMFRAC
 70
0
  9
$DIMLDRBLK
  1

  9
$DIMLUNIT
 70
2
  9
$DIMLWD
 70
-2
  9
$DIMLWE
 70
-2
  9
$DIMTMOVE
 70
0
  9
$DIMFXL
 40
1.0
  9
$DIMFXLON
 70
0
  9
$DIMJOGANG
 40
0.785398163397
  9
$DIMTFILL
 70
0
  9
$DIMTFILLCLR
 70
0
  9
$DIMARCSYM
 70
0
  9
$DIMLTYPE
  6

  9
$DIMLTEX1
  6

  9
$DIMLTEX2
  6

  9
$DIMTXTDIRECTION
 70
0
  9
$LUNITS
 70
2
  9
$LUPREC
 70
4
  9
$SKETCHINC
 40
1.0
  9
$FILLETRAD
 40
10.0
  9
$AUNITS
 70
0
  9
$AUPREC
 70
2
  9
$MENU
  1
.
  9
$ELEVATION
 40
0.0
  9
$PELEVATION
 40
0.0
  9
$THICKNESS
 40
0.0
  9
$LIMCHECK
 70
0
  9
$CHAMFERA
 40
0.0
  9
$CHAMFERB
 40
0.0
  9
$CHAMFERC
 40
0.0
  9
$CHAMFERD
 40
0.0
  9
$SKPOLY
 70
0
  9
$TDCREATE
 40
2460462.334050926
  9
$TDUCREATE
 40
2458532.153996898
  9
$TDUPDATE
 40
2460462.334050926
  9
$TDUUPDATE
 40
2458532.1544311
  9
$TDINDWG
 40
0.0
  9
$TDUSRTIMER
 40
0.0
  9
$USRTIMER
 70
1
  9
$ANGBASE
 50
0.0
  9
$ANGDIR
 70
0
  9
$PDMODE
 70
0
  9
$PDSIZE
 40
0.0
  9
$PLINEWID
 40
0.0
  9
$SPLFRAME
 70
0
  9
$SPLINETYPE
 70
6
  9
$SPLINESEGS
 70
8
  9
$HANDSEED
  5
B6
  9
$SURFTAB1
 70
6
  9
$SURFTAB2
 70
6
  9
$SURFTYPE
 70
6
  9
$SURFU
 70
6
  9
$SURFV
 70
6
  9
$UCSBASE
  2

  9
$UCSNAME
  2

  9
$UCSORG
 10
0.0
 20
0.0
 30
0.0
  9
$UCSXDIR
 10
1.0
 20
0.0
 30
0.0
  9
$UCSYDIR
 10
0.0
 20
1.0
 30
0.0
  9
$UCSORTHOREF
  2

  9
$UCSORTHOVIEW
 70
0
  9
$UCSORGTOP
 10
0.0
 20
0.0
 30
0.0
  9
$UCSORGBOTTOM
 10
0.0
 20
0.0
 30
0.0
  9
$UCSORGLEFT
 10
0.0
 20
0.0
 30
0.0
  9
$UCSORGRIGHT
 10
0.0
 20
0.0
 30
0.0
  9
$UCSORGFRONT
 10
0.0
 20
0.0
 30
0.0
  9
$UCSORGBACK
 10
0.0
 20
0.0
 30
0.0
  9
$PUCSBASE
  2

  9
$PUCSNAME
  2

  9
$PUCSORG
 10
0.0
 20
0.0
 30
0.0
  9
$PUCSXDIR
 10
1.0
 20
0.0
 30
0.0
  9
$PUCSYDIR
 10
0.0
 20
1.0
 30
0.0
  9
$PUCSORTHOREF
  2

  9
$PUCSORTHOVIEW
 70
0
  9
$PUCSORGTOP
 10
0.0
 20
0.0
 30
0.0
  9
$PUCSORGBOTTOM
 10
0.0
 20
0.0
 30
0.0
  9
$PUCSORGLEFT
 10
0.0
 20
0.0
 30
0.0
  9
$PUCSORGRIGHT
 10
0.0
 20
0.0
 30
0.0
  9
$PUCSORGFRONT
 10
0.0
 20
0.0
 30
0.0
  9
$PUCSORGBACK
 10
0.0
 20
0.0
 30
0.0
  9
$USERI1
 70
0
  9
$USERI2
 70
0
  9
$USERI3
 70
0
  9
$USERI4
 70
0
  9
$USERI5
 70
0
  9
$USERR1
 40
0.0
  9
$USERR2
 40
0.0
  9
$USERR3
 40
0.0
  9
$USERR4
 40
0.0
  9
$USERR5
 40
0.0
  9
$WORLDVIEW
 70
1
  9
$SHADEDGE
 70
3
  9
$SHADEDIF
 70
70
  9
$TILEMODE
 70
1
  9
$MAXACTVP
 70
64
  9
$PINSBASE
 10
0.0
 20
0.0
 30
0.0
  9
$PLIMCHECK
 70
0
  9
$PEXTMIN
 10
1e+20
 20
1e+20
 30
1e+20
  9
$PEXTMAX
 10
-1e+20
 20
-1e+20
 30
-1e+20
  9
$PLIMMIN
 10
0.0
 20
0.0
  9
$PLIMMAX
 10
420.0
 20
297.0
  9
$UNITMODE
 70
0
  9
$VISRETAIN
 70
1
  9
$PLINEGEN
 70
0
  9
$PSLTSCALE
 70
1
  9
$TREEDEPTH
 70
3020
  9
$CMLSTYLE
  2
Standard
  9
$CMLJUST
 70
0
  9
$CMLSCALE
 40
20.0
  9
$PROXYGRAPHICS
 70
1
  9
$MEASUREMENT
 70
1
  9
$CELWEIGHT
370
-1
  9
$ENDCAPS
280
0
  9
$JOINSTYLE
280
0
  9
$LWDISPLAY
290
0
  9
$INSUNITS
 70
21
  9
$HYPERLINKBASE
  1

  9
$STYLESHEET
  1

  9
$XEDIT
290
1
  9
$CEPSNTYPE
380
0
  9
$PSTYLEMODE
290
1
  9
$FINGERPRINTGUID
  2
{1CE5FC3E-773E-4427-9A40-42FD587365D1}
  9
$VERSIONGUID
  2
{BCCE9361-8AA8-4239-9D24-9CD5EE68B8D2}
  9
$EXTNAMES
290
1
  9
$PSVPSCALE
 40
0.0
  9
$OLESTARTUP
290
0
  9
$SORTENTS
280
127
  9
$INDEXCTL
280
0
  9
$HIDETEXT
280
1
  9
$XCLIPFRAME
280
1
  9
$HALOGAP
280
0
  9
$OBSCOLOR
 70
257
  9
$OBSLTYPE
280
0
  9
$INTERSECTIONDISPLAY
280
0
  9
$INTERSECTIONCOLOR
 70
257
  9
$DIMASSOC
280
2
  9
$PROJECTNAME
  1

  9
$CAMERADISPLAY
290
0
  9
$LENSLENGTH
 40
50.0
  9
$CAMERAHEIGHT
 40
0.0
  9
$STEPSPERSEC
 40
24.0
  9
$STEPSIZE
 40
100.0
  9
$3DDWFPREC
 40
2.0
  9
$PSOLWIDTH
 40
0.005
  9
$PSOLHEIGHT
 40
0.08
  9
$LOFTANG1
 40
1.570796326795
  9
$LOFTANG2
 40
1.570796326795
  9
$LOFTMAG1
 40
0.0
  9
$LOFTMAG2
 40
0.0
  9
$LOFTPARAM
 70
7
  9
$LOFTNORMALS
280
1
  9
$LATITUDE
 40
37.795
  9
$LONGITUDE
 40
-122.394
  9
$NORTHDIRECTION
 40
0.0
  9
$TIMEZONE
 70
-8000
  9
$LIGHTGLYPHDISPLAY
280
1
  9
$TILEMODELIGHTSYNCH
280
1
  9
$CMATERIAL
347
20
  9
$SOLIDHIST
280
0
  9
$SHOWHIST
280
1
  9
$DWFFRAME
280
2
  9
$DGNFRAME
280
2
  9
$REALWORLDSCALE
290
1
  9
$INTERFERECOLOR
 62
256
  9
$CSHADOW
280
0
  9
$SHADOWPLANELOCATION
 40
0.0
  0
ENDSEC
  0
SECTION
  2
CLASSES
  0
CLASS
  1
ACDBDICTIONARYWDFLT
  2
AcDbDictionaryWithDefault
  3
ObjectDBX Classes
 90
0
 91
0
280
0
281
0
  0
CLASS
  1
SUN
  2
AcDbSun
  3
SCENEOE
 90
1153
 91
0
280
0
281
0
  0
CLASS
  1
VISUALSTYLE
  2
AcDbVisualStyle
  3
ObjectDBX Classes
 90
4095
 91
0
280
0
281
0
  0
CLASS
  1
MATERIAL
  2
AcDbMaterial
  3
ObjectDBX Classes
 90
1153
 91
0
280
0
281
0
  0
CLASS
  1
SCALE
  2
AcDbScale
  3
ObjectDBX Classes
 90
1153
 91
0
280
0
281
0
  0
CLASS
  1
TABLESTYLE
  2
AcDbTableStyle
  3
ObjectDBX Classes
 90
4095
 91
0
280
0
281
0
  0
CLASS
  1
MLEADERSTYLE
  2
AcDbMLeaderStyle
  3
ACDB_MLEADERSTYLE_CLASS
 90
4095
 91
0
280
0
281
0
  0
CLASS
  1
DICTIONARYVAR
  2
AcDbDictionaryVar
  3
ObjectDBX Classes
 90
0
 91
0
280
0
281
0
  0
CLASS
  1
CELLSTYLEMAP
  2
AcDbCellStyleMap
  3
ObjectDBX Classes
 90
1152
 91
0
280
0
281
0
  0
CLASS
  1
MENTALRAYRENDERSETTINGS
  2
AcDbMentalRayRenderSettings
  3
SCENEOE
 90
1024
 91
0
280
0
281
0
  0
CLASS
  1
ACDBDETAILVIEWSTYLE
  2
AcDbDetailViewStyle
  3
ObjectDBX Classes
 90
1025
 91
0
280
0
281
0
  0
CLASS
  1
ACDBSECTIONVIEWSTYLE
  2
AcDbSectionViewStyle
  3
ObjectDBX Classes
 90
1025
 91
0
280
0
281
0
  0
CLASS
  1
RASTERVARIABLES
  2
AcDbRasterVariables
  3
ISM
 90
0
 91
0
280
0
281
0
  0
CLASS
  1
LAYOUT
  2
AcDbLayout
  3
ObjectDBX Classes
 90
0
 91
0
280
0
281
0
  0
CLASS
  1
ACDBPLACEHOLDER
  2
AcDbPlaceHolder
  3
ObjectDBX Classes
 90
0
 91
0
280
0
281
0
  0
ENDSEC
  0
SECTION
  2
TABLES
  0
TABLE
  2
VPORT
  5
8
330
0
100
AcDbSymbolTable
 70
1
  0
VPORT
  5
23
330
8
100
AcDbSymbolTableRecord
100
AcDbViewportTableRecord
  2
*Active
 70
0
 10
0.0
 20
0.0
 11
1.0
 21
1.0
 12
0.0
 22
0.0
 13
0.0
 23
0.0
 14
0.5
 24
0.5
 15
0.5
 25
0.5
 16
0.0
 26
0.0
 36
1.0
 17
0.0
 27
0.0
 37
0.0
 40
1000.0
 41
1.34
 42
50.0
 43
0.0
 44
0.0
 50
0.0
 51
0.0
 71
0
 72
1000
 73
1
 74
3
 75
0
 76
0
 77
0
 78
0
281
0
 65
0
146
0.0
  0
ENDTAB
  0
TABLE
  2
LTYPE
  5
2
330
0
100
AcDbSymbolTable
 70
3
  0
LTYPE
  5
24
330
2
100
AcDbSymbolTableRecord
100
AcDbLinetypeTableRecord
  2
ByBlock
 70
0
  3

 72
65
 73
0
 40
0.0
  0
LTYPE
  5
25
330
2
100
AcDbSymbolTableRecord
100
AcDbLinetypeTableRecord
  2
ByLayer
 70
0
  3

 72
65
 73
0
 40
0.0
  0
LTYPE
  5
26
330
2
100
AcDbSymbolTableRecord
100
AcDbLinetypeTableRecord
  2
Continuous
 70
0
  3

 72
65
 73
0
 40
0.0
  0
ENDTAB
  0
TABLE
  2
LAYER
  5
1
330
0
100
AcDbSymbolTable
 70
6
  0
LAYER
  5
27
330
1
100
AcDbSymbolTableRecord
100
AcDbLayerTableRecord
  2
0
 70
0
 62
7
  6
Continuous
370
-3
390
13
347
21
  0
LAYER
  5
28
330
1
100
AcDbSymbolTableRecord
100
AcDbLayerTableRecord
  2
Defpoints
 70
0
 62
7
  6
Continuous
290
0
370
-3
390
13
347
21
  0
LAYER
  5
2F
330
1
100
AcDbSymbolTableRecord
100
AcDbLayerTableRecord
  2
PT
 70
0
 62
1
  6
Continuous
370
-3
390
13
347
21
  0
LAYER
  5
30
330
1
100
AcDbSymbolTableRecord
100
AcDbLayerTableRecord
  2
PN
 70
0
 62
4
  6
Continuous
370
-3
390
13
347
21
  0
LAYER
  5
31
330
1
100
AcDbSymbolTableRecord
100
AcDbLayerTableRecord
  2
EL
 70
0
 62
3
  6
Continuous
370
-3
390
13
347
21
  0
LAYER
  5
32
330
1
100
AcDbSymbolTableRecord
100
AcDbLayerTableRecord
  2
DE
 70
0
 62
6
  6
Continuous
370
-3
390
13
347
21
  0
ENDTAB
  0
TABLE
  2
STYLE
  5
5
330
0
100
AcDbSymbolTable
 70
1
  0
STYLE
  5
29
330
5
100
AcDbSymbolTableRecord
100
AcDbTextStyleTableRecord
  2
Standard
 70
0
 40
0.0
 41
1.0
 50
0.0
 71
0
 42
2.5
  3
txt
  4

  0
ENDTAB
  0
TABLE
  2
VIEW
  5
7
330
0
100
AcDbSymbolTable
 70
0
  0
ENDTAB
  0
TABLE
  2
UCS
  5
6
330
0
100
AcDbSymbolTable
 70
0
  0
ENDTAB
  0
TABLE
  2
APPID
  5
3
330
0
100
AcDbSymbolTable
 70
3
  0
APPID
  5
2A
330
3
100
AcDbSymbolTableRecord
100
AcDbRegAppTableRecord
  2
ACAD
 70
0
  0
APPID
  5
B3
330
3
100
AcDbSymbolTableRecord
100
AcDbRegAppTableRecord
  2
HATCHBACKGROUNDCOLOR
 70
0
  0
APPID
  5
B4
330
3
100
AcDbSymbolTableRecord
100
AcDbRegAppTableRecord
  2
EZDXF
 70
0
  0
ENDTAB
  0
TABLE
  2
DIMSTYLE
  5
4
330
0
100
AcDbSymbolTable
 70
1
100
AcDbDimStyleTable
  0
DIMSTYLE
105
2B
330
4
100
AcDbSymbolTableRecord
100
AcDbDimStyleTableRecord
  2
Standard
 70
0
 40
1.0
 41
2.5
 42
0.625
 43
3.75
 44
1.25
 45
0.0
 46
0.0
 47
0.0
 48
0.0
 49
2.5
140
2.5
141
2.5
142
0.0
143
0.03937007874
144
1.0
145
0.0
146
1.0
147
0.625
148
0.0
 69
0
 70
0
 71
0
 72
0
 73
0
 74
0
 75
0
 76
0
 77
1
 78
8
 79
3
170
0
171
3
172
1
173
0
174
0
175
0
176
0
177
0
178
0
179
2
271
2
272
2
273
2
274
3
275
0
276
0
277
2
278
44
279
0
280
0
281
0
282
0
283
0
284
8
285
0
286
0
288
0
289
3
290
0
371
-2
372
-2
  0
ENDTAB
  0
TABLE
  2
BLOCK_RECORD
  5
9
330
0
100
AcDbSymbolTable
 70
2
  0
BLOCK_RECORD
  5
17
330
9
100
AcDbSymbolTableRecord
100
AcDbBlockTableRecord
  2
*Model_Space
340
1A
 70
0
280
1
281
0
  0
BLOCK_RECORD
  5
1B
330
9
100
AcDbSymbolTableRecord
100
AcDbBlockTableRecord
  2
*Paper_Space
340
1E
 70
0
280
1
281
0
  0
ENDTAB
  0
ENDSEC
  0
SECTION
  2
BLOCKS
  0
BLOCK
  5
18
330
17
100
AcDbEntity
  8
0
100
AcDbBlockBegin
  2
*Model_Space
 70
0
 10
0.0
 20
0.0
 30
0.0
  3
*Model_Space
  1

  0
ENDBLK
  5
19
330
17
100
AcDbEntity
  8
0
100
AcDbBlockEnd
  0
BLOCK
  5
1C
330
1B
100
AcDbEntity
  8
0
100
AcDbBlockBegin
  2
*Paper_Space
 70
0
 10
0.0
 20
0.0
 30
0.0
  3
*Paper_Space
  1

  0
ENDBLK
  5
1D
330
1B
100
AcDbEntity
  8
0
100
AcDbBlockEnd
  0
ENDSEC
  0
SECTION
  2
ENTITIES
  0
POINT
  5
33
330
17
100
AcDbEntity
  8
PT
100
AcDbPoint
 10
2109174.044
 20
1207574.848
 30
592.053
  0
TEXT
  5
34
330
17
100
AcDbEntity
  8
PN
100
AcDbText
 10
2109174.044
 20
1207574.848
 30
0.0
 40
2.5
  1
50000
 11
2109174.044
 21
1207574.848
 31
0.0
100
AcDbText
 73
1
  0
TEXT
  5
35
330
17
100
AcDbEntity
  8
EL
100
AcDbText
 10
2109174.044
 20
1207574.848
 30
592.053
 40
2.5
  1
592.05
 72
2
 11
2109174.044
 21
1207574.848
 31
592.053
100
AcDbText
 73
1
  0
TEXT
  5
36
330
17
100
AcDbEntity
  8
DE
100
AcDbText
 10
2109174.044
 20
1207574.848
 30
0.0
 40
2.5
  1
PKNAIL
 11
2109174.044
 21
1207574.848
 31
0.0
100
AcDbText
 73
3
  0
POINT
  5
37
330
17
100
AcDbEntity
  8
PT
100
AcDbPoint
 10
2109127.345
 20
1207452.225
 30
592.984
  0
TEXT
  5
38
330
17
100
AcDbEntity
  8
PN
100
AcDbText
 10
2109127.345
 20
1207452.225
 30
0.0
 40
2.5
  1
50001
 11
2109127.345
 21
1207452.225
 31
0.0
100
AcDbText
 73
1
  0
TEXT
  5
39
330
17
100
AcDbEntity
  8
EL
100
AcDbText
 10
2109127.345
 20
1207452.225
 30
592.984
 40
2.5
  1
592.98
 72
2
 11
2109127.345
 21
1207452.225
 31
592.984
100
AcDbText
 73
1
  0
TEXT
  5
3A
330
17
100
AcDbEntity
  8
DE
100
AcDbText
 10
2109127.345
 20
1207452.225
 30
0.0
 40
2.5
  1
PKNAIL
 11
2109127.345
 21
1207452.225
 31
0.0
100
AcDbText
 73
3
  0
POINT
  5
3B
330
17
100
AcDbEntity
  8
PT
100
AcDbPoint
 10
2107609.457
 20
1206291.378
 30
615.734
  0
TEXT
  5
3C
330
17
100
AcDbEntity
  8
PN
100
AcDbText
 10
2107609.457
 20
1206291.378
 30
0.0
 40
2.5
  1
50002
 11
2107609.457
 21
1206291.378
 31
0.0
100
AcDbText
 73
1
  0
TEXT
  5
3D
330
17
100
AcDbEntity
  8
EL
100
AcDbText
 10
2107609.457
 20
1206291.378
 30
615.734
 40
2.5
  1
615.73
 72
2
 11
2107609.457
 21
1206291.378
 31
615.734
100
AcDbText
 73
1
  0
TEXT
  5
3E
330
17
100
AcDbEntity
  8
DE
100
AcDbText
 10
2107609.457
 20
1206291.378
 30
0.0
 40
2.5
  1
NAIL
 11
2107609.457
 21
1206291.378
 31
0.0
100
AcDbText
 73
3
  0
POINT
  5
3F
330
17
100
AcDbEntity
  8
PT
100
AcDbPoint
 10
2107441.075
 20
1206306.325
 30
619.673
  0
TEXT
  5
40
330
17
100
AcDbEntity
  8
PN
100
AcDbText
 10
2107441.075
 20
1206306.325
 30
0.0
 40
2.5
  1
50003
 11
2107441.075
 21
1206306.325
 31
0.0
100
AcDbText
 73
1
  0
TEXT
  5
41
330
17
100
AcDbEntity
  8
EL
100
AcDbText
 10
2107441.075
 20
1206306.325
 30
619.673
 40
2.5
  1
619.67
 72
2
 11
2107441.075
 21
1206306.325
 31
619.673
100
AcDbText
 73
1
  0
TEXT
  5
42
330
17
100
AcDbEntity
  8
DE
100
AcDbText
 10
2107441.075
 20
1206306.325
 30
0.0
 40
2.5
  1
NAIL
 11
2107441.075
 21
1206306.325
 31
0.0
100
AcDbText
 73
3
  0
POINT
  5
43
330
17
100
AcDbEntity
  8
PT
100
AcDbPoint
 10
2107736.685
 20
1203839.197
 30
551.487
  0
TEXT
  5
44
330
17
100
AcDbEntity
  8
PN
100
AcDbText
 10
2107736.685
 20
1203839.197
 30
0.0
 40
2.5
  1
50004
 11
2107736.685
 21
1203839.197
 31
0.0
100
AcDbText
 73
1
  0
TEXT
  5
45
330
17
100
AcDbEntity
  8
EL
100
AcDbText
 10
2107736.685
 20
1203839.197
 30
551.487
 40
2.5
  1
551.49
 72
2
 11
2107736.685
 21
1203839.197
 31
551.487
100
AcDbText
 73
1
  0
TEXT
  5
46
330
17
100
AcDbEntity
  8
DE
100
AcDbText
 10
2107736.685
 20
1203839.197
 30
0.0
 40
2.5
  1
IPF
 11
2107736.685
 21
1203839.197
 31
0.0
100
AcDbText
 73
3
  0
POINT
  5
47
330
17
100
AcDbEntity
  8
PT
100
AcDbPoint
 10
2106386.354
 20
1205195.053
 30
617.521
  0
TEXT
  5
48
330
17
100
AcDbEntity
  8
PN
100
AcDbText
 10
2106386.354
 20
1205195.053
 30
0.0
 40
2.5
  1
50005
 11
2106386.354
 21
1205195.053
 31
0.0
100
AcDbText
 73
1
  0
TEXT
  5
49
330
17
100
AcDbEntity
  8
EL
100
AcDbText
 10
2106386.354
 20
1205195.053
 30
617.521
 40
2.5
  1
617.52
 72
2
 11
2106386.354
 21
1205195.053
 31
617.521
100
AcDbText
 73
1
  0
TEXT
  5
4A
330
17
100
AcDbEntity
  8
DE
100
AcDbText
 10
2106386.354
 20
1205195.053
 30
0.0
 40
2.5
  1
CIPF
 11
2106386.354
 21
1205195.053
 31
0.0
100
AcDbText
 73
3
  0
POINT
  5
4B
330
17
100
AcDbEntity
  8
PT
100
AcDbPoint
 10
2106366.097
 20
1206522.665
 30
664.673
  0
TEXT
  5
4C
330
17
100
AcDbEntity
  8
PN
100
AcDbText
 10
2106366.097
 20
1206522.665
 30
0.0
 40
2.5
  1
50006
 11
2106366.097
 21
1206522.665
 31
0.0
100
AcDbText
 73
1
  0
TEXT
  5
4D
330
17
100
AcDbEntity
  8
EL
100
AcDbText
 10
2106366.097
 20
1206522.665
 30
664.673
 40
2.5
  1
664.67
 72
2
 11
2106366.097
 21
1206522.665
 31
664.673
100
AcDbText
 73
1
  0
TEXT
  5
4E
330
17
100
AcDbEntity
  8
DE
100
AcDbText
 10
2106366.097
 20
1206522.665
 30
0.0
 40
2.5
  1
CIPF
 11
2106366.097
 21
1206522.665
 31
0.0
100
AcDbText
 73
3
  0
POINT
  5
4F
330
17
100
AcDbEntity
  8
PT
100
AcDbPoint
 10
2107968.911
 20
1205142.801
 30
574.122
  0
TEXT
  5
50
330
17
100
AcDbEntity
  8
PN
100
AcDbText
 10
2107968.911
 20
1205142.801
 30
0.0
 40
2.5
  1
50007
 11
2107968.911
 21
1205142.801
 31
0.0
100
AcDbText
 73
1
  0
TEXT
  5
51
330
17
100
AcDbEntity
  8
EL
100
AcDbText
 10
2107968.911
 20
1205142.801
 30
574.122
 40
2.5
  1
574.12
 72
2
 11
2107968.911
 21
1205142.801
 31
574.122
100
AcDbText
 73
1
  0
TEXT
  5
52
330
17
100
AcDbEntity
  8
DE
100
AcDbText
 10
2107968.911
 20
1205142.801
 30
0.0
 40
2.5
  1
NAIL
 11
2107968.911
 21
1205142.801
 31
0.0
100
AcDbText
 73
3
  0
POINT
  5
53
330
17
100
AcDbEntity
  8
PT
100
AcDbPoint
 10
2099810.833
 20
1198564.783
 30
570.681
  0
TEXT
  5
54
330
17
100
AcDbEntity
  8
PN
100
AcDbText
 10
2099810.833
 20
1198564.783
 30
0.0
 40
2.5
  1
50008
 11
2099810.833
 21
1198564.783
 31
0.0
100
AcDbText
 73
1
  0
TEXT
  5
55
330
17
100
AcDbEntity
  8
EL
100
AcDbText
 10
2099810.833
 20
1198564.783
 30
570.681
 40
2.5
  1
570.68
 72
2
 11
2099810.833
 21
1198564.783
 31
570.681
100
AcDbText
 73
1
  0
TEXT
  5
56
330
17
100
AcDbEntity
  8
DE
100
AcDbText
 10
2099810.833
 20
1198564.783
 30
0.0
 40
2.5
  1
IPF
 11
2099810.833
 21
1198564.783
 31
0.0
100
AcDbText
 73
3
  0
POINT
  5
57
330
17
100
AcDbEntity
  8
PT
100
AcDbPoint
 10
2103831.229
 20
1197218.304
 30
503.413
  0
TEXT
  5
58
330
17
100
AcDbEntity
  8
PN
100
AcDbText
 10
2103831.229
 20
1197218.304
 30
0.0
 40
2.5
  1
50009
 11
2103831.229
 21
1197218.304
 31
0.0
100
AcDbText
 73
1
  0
TEXT
  5
59
330
17
100
AcDbEntity
  8
EL
100
AcDbText
 10
2103831.229
 20
1197218.304
 30
503.413
 40
2.5
  1
503.41
 72
2
 11
2103831.229
 21
1197218.304
 31
503.413
100
AcDbText
 73
1
  0
TEXT
  5
5A
330
17
100
AcDbEntity
  8
DE
100
AcDbText
 10
2103831.229
 20
1197218.304
 30
0.0
 40
2.5
  1
CIPF
 11
2103831.229
 21
1197218.304
 31
0.0
100
AcDbText
 73
3
  0
POINT
  5
5B
330
17
100
AcDbEntity
  8
PT
100
AcDbPoint
 10
2101148.594
 20
1198562.325
 30
527.974
  0
TEXT
  5
5C
330
17
100
AcDbEntity
  8
PN
100
AcDbText
 10
2101148.594
 20
1198562.325
 30
0.0
 40
2.5
  1
50010
 11
2101148.594
 21
1198562.325
 31
0.0
100
AcDbText
 73
1
  0
TEXT
  5
5D
330
17
100
AcDbEntity
  8
EL
100
AcDbText
 10
2101148.594
 20
1198562.325
 30
527.974
 40
2.5
  1
527.97
 72
2
 11
2101148.594
 21
1198562.325
 31
527.974
100
AcDbText
 73
1
  0
TEXT
  5
5E
330
17
100
AcDbEntity
  8
DE
100
AcDbText
 10
2101148.594
 20
1198562.325
 30
0.0
 40
2.5
  1
IPF
 11
2101148.594
 21
1198562.325
 31
0.0
100
AcDbText
 73
3
  0
POINT
  5
5F
330
17
100
AcDbEntity
  8
PT
100
AcDbPoint
 10
2096996.287
 20
1194312.466
 30
506.425
  0
TEXT
  5
60
330
17
100
AcDbEntity
  8
PN
100
AcDbText
 10
2096996.287
 20
1194312.466
 30
0.0
 40
2.5
  1
50020
 11
2096996.287
 21
1194312.466
 31
0.0
100
AcDbText
 73
1
  0
TEXT
  5
61
330
17
100
AcDbEntity
  8
EL
100
AcDbText
 10
2096996.287
 20
1194312.466
 30
506.425
 40
2.5
  1
506.43
 72
2
 11
2096996.287
 21
1194312.466
 31
506.425
100
AcDbText
 73
1
  0
TEXT
  5
62
330
17
100
AcDbEntity
  8
DE
100
AcDbText
 10
2096996.287
 20
1194312.466
 30
0.0
 40
2.5
  1
WV
 11
2096996.287
 21
1194312.466
 31
0.0
100
AcDbText
 73
3
  0
POINT
  5
63
330
17
100
AcDbEntity
  8
PT
100
AcDbPoint
 10
2098736.554
 20
1195369.82
 30
516.072
  0
TEXT
  5
64
330
17
100
AcDbEntity
  8
PN
100
AcDbText
 10
2098736.554
 20
1195369.82
 30
0.0
 40
2.5
  1
50021
 11
2098736.554
 21
1195369.82
 31
0.0
100
AcDbText
 73
1
  0
TEXT
  5
65
330
17
100
AcDbEntity
  8
EL
100
AcDbText
 10
2098736.554
 20
1195369.82
 30
516.072
 40
2.5
  1
516.07
 72
2
 11
2098736.554
 21
1195369.82
 31
516.072
100
AcDbText
 73
1
  0
TEXT
  5
66
330
17
100
AcDbEntity
  8
DE
100
AcDbText
 10
2098736.554
 20
1195369.82
 30
0.0
 40
2.5
  1
WM
 11
2098736.554
 21
1195369.82
 31
0.0
100
AcDbText
 73
3
  0
POINT
  5
67
330
17
100
AcDbEntity
  8
PT
100
AcDbPoint
 10
2098732.195
 20
1195389.59
 30
516.504
  0
TEXT
  5
68
330
17
100
AcDbEntity
  8
PN
100
AcDbText
 10
2098732.195
 20
1195389.59
 30
0.0
 40
2.5
  1
50022
 11
2098732.195
 21
1195389.59
 31
0.0
100
AcDbText
 73
1
  0
TEXT
  5
69
330
17
100
AcDbEntity
  8
EL
100
AcDbText
 10
2098732.195
 20
1195389.59
 30
516.504
 40
2.5
  1
516.50
 72
2
 11
2098732.195
 21
1195389.59
 31
516.504
100
AcDbText
 73
1
  0
TEXT
  5
6A
330
17
100
AcDbEntity
  8
DE
100
AcDbText
 10
2098732.195
 20
1195389.59
 30
0.0
 40
2.5
  1
TRENCH
 11
2098732.195
 21
1195389.59
 31
0.0
100
AcDbText
 73
3
  0
POINT
  5
6B
330
17
100
AcDbEntity
  8
PT
100
AcDbPoint
 10
2098725.867
 20
1195411.353
 30
517.597
  0
TEXT
  5
6C
330
17
100
AcDbEntity
  8
PN
100
AcDbText
 10
2098725.867
 20
1195411.353
 30
0.0
 40
2.5
  1
50023
 11
2098725.867
 21
1195411.353
 31
0.0
100
AcDbText
 73
1
  0
TEXT
  5
6D
330
17
100
AcDbEntity
  8
EL
100
AcDbText
 10
2098725.867
 20
1195411.353
 30
517.597
 40
2.5
  1
517.60
 72
2
 11
2098725.867
 21
1195411.353
 31
517.597
100
AcDbText
 73
1
  0
TEXT
  5
6E
330
17
100
AcDbEntity
  8
DE
100
AcDbText
 10
2098725.867
 20
1195411.353
 30
0.0
 40
2.5
  1
TRENCH
 11
2098725.867
 21
1195411.353
 31
0.0
100
AcDbText
 73
3
  0
POINT
  5
6F
330
17
100
AcDbEntity
  8
PT
100
AcDbPoint
 10
2098716.823
 20
1195434.345
 30
519.37
  0
TEXT
  5
70
330
17
100
AcDbEntity
  8
PN
100
AcDbText
 10
2098716.823
 20
1195434.345
 30
0.0
 40
2.5
  1
50024
 11
2098716.823
 21
1195434.345
 31
0.0
100
AcDbText
 73
1
  0
TEXT
  5
71
330
17
100
AcDbEntity
  8
EL
100
AcDbText
 10
2098716.823
 20
1195434.345
 30
519.37
 40
2.5
  1
519.37
 72
2
 11
2098716.823
 21
1195434.345
 31
519.37
100
AcDbText
 73
1
  0
TEXT
  5
72
330
17
100
AcDbEntity
  8
DE
100
AcDbText
 10
2098716.823
 20
1195434.345
 30
0.0
 40
2.5
  1
TRENCH
 11
2098716.823
 21
1195434.345
 31
0.0
100
AcDbText
 73
3
  0
POINT
  5
73
330
17
100
AcDbEntity
  8
PT
100
AcDbPoint
 10
2098269.141
 20
1195119.612
 30
513.159
  0
TEXT
  5
74
330
17
100
AcDbEntity
  8
PN
100
AcDbText
 10
2098269.141
 20
1195119.612
 30
0.0
 40
2.5
  1
50025
 11
2098269.141
 21
1195119.612
 31
0.0
100
AcDbText
 73
1
  0
TEXT
  5
75
330
17
100
AcDbEntity
  8
EL
100
AcDbText
 10
2098269.141
 20
1195119.612
 30
513.159
 40
2.5
  1
513.16
 72
2
 11
2098269.141
 21
1195119.612
 31
513.159
100
AcDbText
 73
1
  0
TEXT
  5
76
330
17
100
AcDbEntity
  8
DE
100
AcDbText
 10
2098269.141
 20
1195119.612
 30
0.0
 40
2.5
  1
WM
 11
2098269.141
 21
1195119.612
 31
0.0
100
AcDbText
 73
3
  0
POINT
  5
77
330
17
100
AcDbEntity
  8
PT
100
AcDbPoint
 10
2098212.123
 20
1195087.286
 30
511.996
  0
TEXT
  5
78
330
17
100
AcDbEntity
  8
PN
100
AcDbText
 10
2098212.123
 20
1195087.286
 30
0.0
 40
2.5
  1
50026
 11
2098212.123
 21
1195087.286
 31
0.0
100
AcDbText
 73
1
  0
TEXT
  5
79
330
17
100
AcDbEntity
  8
EL
100
AcDbText
 10
2098212.123
 20
1195087.286
 30
511.996
 40
2.5
  1
512.00
 72
2
 11
2098212.123
 21
1195087.286
 31
511.996
100
AcDbText
 73
1
  0
TEXT
  5
7A
330
17
100
AcDbEntity
  8
DE
100
AcDbText
 10
2098212.123
 20
1195087.286
 30
0.0
 40
2.5
  1
WM
 11
2098212.123
 21
1195087.286
 31
0.0
100
AcDbText
 73
3
  0
POINT
  5
7B
330
17
100
AcDbEntity
  8
PT
100
AcDbPoint
 10
2098710.81
 20
1195275.897
 30
513.997
  0
TEXT
  5
7C
330
17
100
AcDbEntity
  8
PN
100
AcDbText
 10
2098710.81
 20
1195275.897
 30
0.0
 40
2.5
  1
50027
 11
2098710.81
 21
1195275.897
 31
0.0
100
AcDbText
 73
1
  0
TEXT
  5
7D
330
17
100
AcDbEntity
  8
EL
100
AcDbText
 10
2098710.81
 20
1195275.897
 30
513.997
 40
2.5
  1
514.00
 72
2
 11
2098710.81
 21
1195275.897
 31
513.997
100
AcDbText
 73
1
  0
TEXT
  5
7E
330
17
100
AcDbEntity
  8
DE
100
AcDbText
 10
2098710.81
 20
1195275.897
 30
0.0
 40
2.5
  1
WV
 11
2098710.81
 21
1195275.897
 31
0.0
100
AcDbText
 73
3
  0
POINT
  5
7F
330
17
100
AcDbEntity
  8
PT
100
AcDbPoint
 10
2098717.547
 20
1195272.816
 30
513.976
  0
TEXT
  5
80
330
17
100
AcDbEntity
  8
PN
100
AcDbText
 10
2098717.547
 20
1195272.816
 30
0.0
 40
2.5
  1
50028
 11
2098717.547
 21
1195272.816
 31
0.0
100
AcDbText
 73
1
  0
TEXT
  5
81
330
17
100
AcDbEntity
  8
EL
100
AcDbText
 10
2098717.547
 20
1195272.816
 30
513.976
 40
2.5
  1
513.98
 72
2
 11
2098717.547
 21
1195272.816
 31
513.976
100
AcDbText
 73
1
  0
TEXT
  5
82
330
17
100
AcDbEntity
  8
DE
100
AcDbText
 10
2098717.547
 20
1195272.816
 30
0.0
 40
2.5
  1
WV
 11
2098717.547
 21
1195272.816
 31
0.0
100
AcDbText
 73
3
  0
POINT
  5
83
330
17
100
AcDbEntity
  8
PT
100
AcDbPoint
 10
2098751.955
 20
1195295.596
 30
513.731
  0
TEXT
  5
84
330
17
100
AcDbEntity
  8
PN
100
AcDbText
 10
2098751.955
 20
1195295.596
 30
0.0
 40
2.5
  1
50029
 11
2098751.955
 21
1195295.596
 31
0.0
100
AcDbText
 73
1
  0
TEXT
  5
85
330
17
100
AcDbEntity
  8
EL
100
AcDbText
 10
2098751.955
 20
1195295.596
 30
513.731
 40
2.5
  1
513.73
 72
2
 11
2098751.955
 21
1195295.596
 31
513.731
100
AcDbText
 73
1
  0
TEXT
  5
86
330
17
100
AcDbEntity
  8
DE
100
AcDbText
 10
2098751.955
 20
1195295.596
 30
0.0
 40
2.5
  1
WV
 11
2098751.955
 21
1195295.596
 31
0.0
100
AcDbText
 73
3
  0
POINT
  5
87
330
17
100
AcDbEntity
  8
PT
100
AcDbPoint
 10
2098965.821
 20
1195474.51
 30
524.197
  0
TEXT
  5
88
330
17
100
AcDbEntity
  8
PN
100
AcDbText
 10
2098965.821
 20
1195474.51
 30
0.0
 40
2.5
  1
50030
 11
2098965.821
 21
1195474.51
 31
0.0
100
AcDbText
 73
1
  0
TEXT
  5
89
330
17
100
AcDbEntity
  8
EL
100
AcDbText
 10
2098965.821
 20
1195474.51
 30
524.197
 40
2.5
  1
524.20
 72
2
 11
2098965.821
 21
1195474.51
 31
524.197
100
AcDbText
 73
1
  0
TEXT
  5
8A
330
17
100
AcDbEntity
  8
DE
100
AcDbText
 10
2098965.821
 20
1195474.51
 30
0.0
 40
2.5
  1
WL
 11
2098965.821
 21
1195474.51
 31
0.0
100
AcDbText
 73
3
  0
POINT
  5
8B
330
17
100
AcDbEntity
  8
PT
100
AcDbPoint
 10
2099137.423
 20
1195589.715
 30
525.523
  0
TEXT
  5
8C
330
17
100
AcDbEntity
  8
PN
100
AcDbText
 10
2099137.423
 20
1195589.715
 30
0.0
 40
2.5
  1
50031
 11
2099137.423
 21
1195589.715
 31
0.0
100
AcDbText
 73
1
  0
TEXT
  5
8D
330
17
100
AcDbEntity
  8
EL
100
AcDbText
 10
2099137.423
 20
1195589.715
 30
525.523
 40
2.5
  1
525.52
 72
2
 11
2099137.423
 21
1195589.715
 31
525.523
100
AcDbText
 73
1
  0
TEXT
  5
8E
330
17
100
AcDbEntity
  8
DE
100
AcDbText
 10
2099137.423
 20
1195589.715
 30
0.0
 40
2.5
  1
WM
 11
2099137.423
 21
1195589.715
 31
0.0
100
AcDbText
 73
3
  0
POINT
  5
8F
330
17
100
AcDbEntity
  8
PT
100
AcDbPoint
 10
2099147.799
 20
1195572.17
 30
524.953
  0
TEXT
  5
90
330
17
100
AcDbEntity
  8
PN
100
AcDbText
 10
2099147.799
 20
1195572.17
 30
0.0
 40
2.5
  1
50032
 11
2099147.799
 21
1195572.17
 31
0.0
100
AcDbText
 73
1
  0
TEXT
  5
91
330
17
100
AcDbEntity
  8
EL
100
AcDbText
 10
2099147.799
 20
1195572.17
 30
524.953
 40
2.5
  1
524.95
 72
2
 11
2099147.799
 21
1195572.17
 31
524.953
100
AcDbText
 73
1
  0
TEXT
  5
92
330
17
100
AcDbEntity
  8
DE
100
AcDbText
 10
2099147.799
 20
1195572.17
 30
0.0
 40
2.5
  1
WL
 11
2099147.799
 21
1195572.17
 31
0.0
100
AcDbText
 73
3
  0
POINT
  5
93
330
17
100
AcDbEntity
  8
PT
100
AcDbPoint
 10
2099168.145
 20
1195601.712
 30
525.015
  0
TEXT
  5
94
330
17
100
AcDbEntity
  8
PN
100
AcDbText
 10
2099168.145
 20
1195601.712
 30
0.0
 40
2.5
  1
50033
 11
2099168.145
 21
1195601.712
 31
0.0
100
AcDbText
 73
1
  0
TEXT
  5
95
330
17
100
AcDbEntity
  8
EL
100
AcDbText
 10
2099168.145
 20
1195601.712
 30
525.015
 40
2.5
  1
525.01
 72
2
 11
2099168.145
 21
1195601.712
 31
525.015
100
AcDbText
 73
1
  0
TEXT
  5
96
330
17
100
AcDbEntity
  8
DE
100
AcDbText
 10
2099168.145
 20
1195601.712
 30
0.0
 40
2.5
  1
WM
 11
2099168.145
 21
1195601.712
 31
0.0
100
AcDbText
 73
3
  0
POINT
  5
97
330
17
100
AcDbEntity
  8
PT
100
AcDbPoint
 10
2099385.708
 20
1195656.55
 30
520.82
  0
TEXT
  5
98
330
17
100
AcDbEntity
  8
PN
100
AcDbText
 10
2099385.708
 20
1195656.55
 30
0.0
 40
2.5
  1
50034
 11
2099385.708
 21
1195656.55
 31
0.0
100
AcDbText
 73
1
  0
TEXT
  5
99
330
17
100
AcDbEntity
  8
EL
100
AcDbText
 10
2099385.708
 20
1195656.55
 30
520.82
 40
2.5
  1
520.82
 72
2
 11
2099385.708
 21
1195656.55
 31
520.82
100
AcDbText
 73
1
  0
TEXT
  5
9A
330
17
100
AcDbEntity
  8
DE
100
AcDbText
 10
2099385.708
 20
1195656.55
 30
0.0
 40
2.5
  1
FH
 11
2099385.708
 21
1195656.55
 31
0.0
100
AcDbText
 73
3
  0
POINT
  5
9B
330
17
100
AcDbEntity
  8
PT
100
AcDbPoint
 10
2099341.186
 20
1195635.027
 30
521.453
  0
TEXT
  5
9C
330
17
100
AcDbEntity
  8
PN
100
AcDbText
 10
2099341.186
 20
1195635.027
 30
0.0
 40
2.5
  1
50035
 11
2099341.186
 21
1195635.027
 31
0.0
100
AcDbText
 73
1
  0
TEXT
  5
9D
330
17
100
AcDbEntity
  8
EL
100
AcDbText
 10
2099341.186
 20
1195635.027
 30
521.453
 40
2.5
  1
521.45
 72
2
 11
2099341.186
 21
1195635.027
 31
521.453
100
AcDbText
 73
1
  0
TEXT
  5
9E
330
17
100
AcDbEntity
  8
DE
100
AcDbText
 10
2099341.186
 20
1195635.027
 30
0.0
 40
2.5
  1
WV
 11
2099341.186
 21
1195635.027
 31
0.0
100
AcDbText
 73
3
  0
POINT
  5
9F
330
17
100
AcDbEntity
  8
PT
100
AcDbPoint
 10
2100336.756
 20
1196645.416
 30
518.185
  0
TEXT
  5
A0
330
17
100
AcDbEntity
  8
PN
100
AcDbText
 10
2100336.756
 20
1196645.416
 30
0.0
 40
2.5
  1
50036
 11
2100336.756
 21
1196645.416
 31
0.0
100
AcDbText
 73
1
  0
TEXT
  5
A1
330
17
100
AcDbEntity
  8
EL
100
AcDbText
 10
2100336.756
 20
1196645.416
 30
518.185
 40
2.5
  1
518.18
 72
2
 11
2100336.756
 21
1196645.416
 31
518.185
100
AcDbText
 73
1
  0
TEXT
  5
A2
330
17
100
AcDbEntity
  8
DE
100
AcDbText
 10
2100336.756
 20
1196645.416
 30
0.0
 40
2.5
  1
WM
 11
2100336.756
 21
1196645.416
 31
0.0
100
AcDbText
 73
3
  0
POINT
  5
A3
330
17
100
AcDbEntity
  8
PT
100
AcDbPoint
 10
2100435.969
 20
1196730.829
 30
514.948
  0
TEXT
  5
A4
330
17
100
AcDbEntity
  8
PN
100
AcDbText
 10
2100435.969
 20
1196730.829
 30
0.0
 40
2.5
  1
50037
 11
2100435.969
 21
1196730.829
 31
0.0
100
AcDbText
 73
1
  0
TEXT
  5
A5
330
17
100
AcDbEntity
  8
EL
100
AcDbText
 10
2100435.969
 20
1196730.829
 30
514.948
 40
2.5
  1
514.95
 72
2
 11
2100435.969
 21
1196730.829
 31
514.948
100
AcDbText
 73
1
  0
TEXT
  5
A6
330
17
100
AcDbEntity
  8
DE
100
AcDbText
 10
2100435.969
 20
1196730.829
 30
0.0
 40
2.5
  1
WM
 11
2100435.969
 21
1196730.829
 31
0.0
100
AcDbText
 73
3
  0
POINT
  5
A7
330
17
100
AcDbEntity
  8
PT
100
AcDbPoint
 10
2105457.245
 20
1201423.511
 30
521.961
  0
TEXT
  5
A8
330
17
100
AcDbEntity
  8
PN
100
AcDbText
 10
2105457.245
 20
1201423.511
 30
0.0
 40
2.5
  1
50038
 11
2105457.245
 21
1201423.511
 31
0.0
100
AcDbText
 73
1
  0
TEXT
  5
A9
330
17
100
AcDbEntity
  8
EL
100
AcDbText
 10
2105457.245
 20
1201423.511
 30
521.961
 40
2.5
  1
521.96
 72
2
 11
2105457.245
 21
1201423.511
 31
521.961
100
AcDbText
 73
1
  0
TEXT
  5
AA
330
17
100
AcDbEntity
  8
DE
100
AcDbText
 10
2105457.245
 20
1201423.511
 30
0.0
 40
2.5
  1
WTR MRKR
 11
2105457.245
 21
1201423.511
 31
0.0
100
AcDbText
 73
3
  0
POINT
  5
AB
330
17
100
AcDbEntity
  8
PT
100
AcDbPoint
 10
2105462.371
 20
1201430.676
 30
522.265
  0
TEXT
  5
AC
330
17
100
AcDbEntity
  8
PN
100
AcDbText
 10
2105462.371
 20
1201430.676
 30
0.0
 40
2.5
  1
50039
 11
2105462.371
 21
1201430.676
 31
0.0
100
AcDbText
 73
1
  0
TEXT
  5
AD
330
17
100
AcDbEntity
  8
EL
100
AcDbText
 10
2105462.371
 20
1201430.676
 30
522.265
 40
2.5
  1
522.26
 72
2
 11
2105462.371
 21
1201430.676
 31
522.265
100
AcDbText
 73
1
  0
TEXT
  5
AE
330
17
100
AcDbEntity
  8
DE
100
AcDbText
 10
2105462.371
 20
1201430.676
 30
0.0
 40
2.5
  1
WTR MRKR
 11
2105462.371
 21
1201430.676
 31
0.0
100
AcDbText
 73
3
  0
POINT
  5
AF
330
17
100
AcDbEntity
  8
PT
100
AcDbPoint
 10
2105461.77
 20
1201428.889
 30
522.037
  0
TEXT
  5
B0
330
17
100
AcDbEntity
  8
PN
100
AcDbText
 10
2105461.77
 20
1201428.889
 30
0.0
 40
2.5
  1
50040
 11
2105461.77
 21
1201428.889
 31
0.0
100
AcDbText
 73
1
  0
TEXT
  5
B1
330
17
100
AcDbEntity
  8
EL
100
AcDbText
 10
2105461.77
 20
1201428.889
 30
522.037
 40
2.5
  1
522.04
 72
2
 11
2105461.77
 21
1201428.889
 31
522.037
100
AcDbText
 73
1
  0
TEXT
  5
B2
330
17
100
AcDbEntity
  8
DE
100
AcDbText
 10
2105461.77
 20
1201428.889
 30
0.0
 40
2.5
  1
FH
 11
2105461.77
 21
1201428.889
 31
0.0
100
AcDbText
 73
3
  0
ENDSEC
  0
SECTION
  2
OBJECTS
  0
DICTIONARY
  5
A
330
0
100
AcDbDictionary
280
0
281
1
  3
ACAD_COLOR
350
B
  3
ACAD_GROUP
350
C
  3
ACAD_LAYOUT
350
D
  3
ACAD_MATERIAL
350
E
  3
ACAD_MLEADERSTYLE
350
F
  3
ACAD_MLINESTYLE
350
10
  3
ACAD_PLOTSETTINGS
350
11
  3
ACAD_PLOTSTYLENAME
350
12
  3
ACAD_SCALELIST
350
14
  3
ACAD_TABLESTYLE
350
15
  3
ACAD_VISUALSTYLE
350
16
  3
EZDXF_META
350
2D
  0
DICTIONARY
  5
B
330
A
100
AcDbDictionary
280
0
281
1
  0
DICTIONARY
  5
C
330
A
100
AcDbDictionary
280
0
281
1
  0
DICTIONARY
  5
D
330
A
100
AcDbDictionary
280
0
281
1
  3
Model
350
1A
  3
Layout1
350
1E
  0
DICTIONARY
  5
E
330
A
100
AcDbDictionary
280
0
281
1
  3
ByBlock
350
1F
  3
ByLayer
350
20
  3
Global
350
21
  0
DICTIONARY
  5
F
330
A
100
AcDbDictionary
280
0
281
1
  3
Standard
350
2C
  0
DICTIONARY
  5
10
330
A
100
AcDbDictionary
280
0
281
1
  3
Standard
350
22
  0
DICTIONARY
  5
11
330
A
100
AcDbDictionary
280
0
281
1
  0
ACDBDICTIONARYWDFLT
  5
12
330
A
100
AcDbDictionary
280
0
281
1
  3
Normal
350
13
100
AcDbDictionaryWithDefault
340
13
  0
ACDBPLACEHOLDER
  5
13
330
12
  0
DICTIONARY
  5
14
330
A
100
AcDbDictionary
280
0
281
1
  0
DICTIONARY
  5
15
330
A
100
AcDbDictionary
280
0
281
1
  0
DICTIONARY
  5
16
330
A
100
AcDbDictionary
280
0
281
1
  0
LAYOUT
  5
1A
330
D
100
AcDbPlotSettings
  1

  2
Adobe PDF
  4
A3
  6

 40
7.5
 41
20.0
 42
7.5
 43
20.0
 44
420.0
 45
297.0
 46
0.0
 47
0.0
 48
0.0
 49
0.0
140
0.0
141
0.0
142
1.0
143
1.0
 70
1024
 72
1
 73
0
 74
5
  7

 75
16
 76
0
 77
2
 78
300
147
1.0
148
0.0
149
0.0
100
AcDbLayout
  1
Model
 70
1
 71
0
 10
0.0
 20
0.0
 11
420.0
 21
297.0
 12
0.0
 22
0.0
 32
0.0
 14
1e+20
 24
1e+20
 34
1e+20
 15
-1e+20
 25
-1e+20
 35
-1e+20
146
0.0
 13
0.0
 23
0.0
 33
0.0
 16
1.0
 26
0.0
 36
0.0
 17
0.0
 27
1.0
 37
0.0
 76
1
330
17
  0
LAYOUT
  5
1E
330
D
100
AcDbPlotSettings
  1

  2
Adobe PDF
  4
A3
  6

 40
7.5
 41
20.0
 42
7.5
 43
20.0
 44
420.0
 45
297.0
 46
0.0
 47
0.0
 48
0.0
 49
0.0
140
0.0
141
0.0
142
1.0
143
1.0
 70
0
 72
1
 73
0
 74
5
  7

 75
16
 76
0
 77
2
 78
300
147
1.0
148
0.0
149
0.0
100
AcDbLayout
  1
Layout1
 70
1
 71
1
 10
0.0
 20
0.0
 11
420.0
 21
297.0
 12
0.0
 22
0.0
 32
0.0
 14
1e+20
 24
1e+20
 34
1e+20
 15
-1e+20
 25
-1e+20
 35
-1e+20
146
0.0
 13
0.0
 23
0.0
 33
0.0
 16
1.0
 26
0.0
 36
0.0
 17
0.0
 27
1.0
 37
0.0
 76
1
330
1B
  0
MATERIAL
  5
1F
102
{ACAD_REACTORS
330
E
102
}
330
E
100
AcDbMaterial
  1
ByBlock
  2

 70
0
 40
1.0
 71
1
 41
1.0
 91
-1023410177
 42
1.0
 72
1
  3

 73
1
 74
1
 75
1
 44
0.5
 73
0
 45
1.0
 46
1.0
 77
1
  4

 78
1
 79
1
170
1
 48
1.0
171
1
  6

172
1
173
1
174
1
140
1.0
141
1.0
175
1
  7

176
1
177
1
178
1
143
1.0
179
1
  8

270
1
271
1
272
1
145
1.0
146
1.0
273
1
  9

274
1
275
1
276
1
 42
1.0
 72
1
  3

 73
1
 74
1
 75
1
 94
63
  0
MATERIAL
  5
20
102
{ACAD_REACTORS
330
E
102
}
330
E
100
AcDbMaterial
  1
ByLayer
  2

 70
0
 40
1.0
 71
1
 41
1.0
 91
-1023410177
 42
1.0
 72
1
  3

 73
1
 74
1
 75
1
 44
0.5
 73
0
 45
1.0
 46
1.0
 77
1
  4

 78
1
 79
1
170
1
 48
1.0
171
1
  6

172
1
173
1
174
1
140
1.0
141
1.0
175
1
  7

176
1
177
1
178
1
143
1.0
179
1
  8

270
1
271
1
272
1
145
1.0
146
1.0
273
1
  9

274
1
275
1
276
1
 42
1.0
 72
1
  3

 73
1
 74
1
 75
1
 94
63
  0
MATERIAL
  5
21
102
{ACAD_REACTORS
330
E
102
}
330
E
100
AcDbMaterial
  1
Global
  2

 70
0
 40
1.0
 71
1
 41
1.0
 91
-1023410177
 42
1.0
 72
1
  3

 73
1
 74
1
 75
1
 44
0.5
 73
0
 45
1.0
 46
1.0
 77
1
  4

 78
1
 79
1
170
1
 48
1.0
171
1
  6

172
1
173
1
174
1
140
1.0
141
1.0
175
1
  7

176
1
177
1
178
1
143
1.0
179
1
  8

270
1
271
1
272
1
145
1.0
146
1.0
273
1
  9

274
1
275
1
276
1
 42
1.0
 72
1
  3

 73
1
 74
1
 75
1
 94
63
  0
MLINESTYLE
  5
22
102
{ACAD_REACTORS
330
10
102
}
330
10
100
AcDbMlineStyle
  2
Standard
 70
0
  3

 62
256
 51
90.0
 52
90.0
 71
2
 49
0.5
 62
256
  6
BYLAYER
 49
-0.5
 62
256
  6
BYLAYER
  0
MLEADERSTYLE
  5
2C
102
{ACAD_REACTORS
330
F
102
}
330
F
100
AcDbMLeaderStyle
179
2
170
2
171
1
172
0
 90
2
 40
0.0
 41
0.0
173
1
 91
-1056964608
 92
-2
290
1
 42
2.0
291
1
 43
8.0
  3
Standard
 44
4.0
300

342
29
174
1
175
1
176
0
178
1
 93
-1056964608
 45
4.0
292
0
297
0
 46
4.0
 94
-1056964608
 47
1.0
 49
1.0
140
1.0
294
1
141
0.0
177
0
142
1.0
295
0
296
0
143
3.75
271
0
272
9
273
9
  0
DICTIONARY
  5
2D
330
A
100
AcDbDictionary
281
1
  3
CREATED_BY_EZDXF
350
2E
  3
WRITTEN_BY_EZDXF
350
B5
  0
DICTIONARYVAR
  5
2E
330
2D
100
DictionaryVariables
280
0
  1
1.3.0 @ 2024-05-31T13:01:02.841564+00:00
  0
DICTIONARYVAR
  5
B5
330
2D
100
DictionaryVariables
280
0
  1
1.3.0 @ 2024-05-31T13:01:02.857192+00:00
  0
ENDSEC
  0
EOF
